#!OML:ASF F:\VICON\USERDATA\INSTALL\rory3\rory3.ASF
:FULLY-SPECIFIED
:DEGREES
2241
root 4.03193 17.888 10.3195 3.35831 132.13 -359.323
lowerback 12.3319 5.08085 -3.04717
upperback 2.53972 6.46143 -3.28238
thorax -4.15393 3.32846 -2.74907
lowerneck -15.357 5.69856 -5.25895
upperneck 45.8221 18.2985 1.22563
head 20.0236 7.88106 5.74182
rclavicle -1.00386e-013 3.89618e-014
rhumerus -30.8572 -10.8023 -78.3808
rradius 42.1636
rwrist 1.12264
rhand -17.2164 7.95532
rfingers 7.12502
rthumb 9.02656 -21.8315
lclavicle -1.00386e-013 3.89618e-014
lhumerus -38.8964 10.5653 79.4413
lradius 32.9983
lwrist -5.69005
lhand -20.6228 27.5761
lfingers 7.12502
lthumb 5.73856 57.4784
rfemur -29.1343 -2.34913 17.5985
rtibia 27.4432
rfoot -9.54242 14.2167
rtoes -23.6514
lfemur -0.328372 -17.755 -26.482
ltibia 25.9549
lfoot -9.91592 -16.5864
ltoes 8.72311
2242
root 3.93906 17.8971 10.3804 3.10244 131.242 -359.436
lowerback 12.3058 5.19155 -3.08268
upperback 2.57085 6.6075 -3.35387
thorax -4.09915 3.40292 -2.82219
lowerneck -15.281 5.68422 -5.30095
upperneck 45.8624 18.3191 1.16049
head 20.0394 7.87055 5.719
rclavicle 1.07344e-013 -5.32743e-014
rhumerus -30.3272 -10.7229 -78.8642
rradius 41.9522
rwrist 1.31324
rhand -17.2233 8.01297
rfingers 7.12502
rthumb 9.01987 -21.7742
lclavicle 1.07344e-013 -5.32743e-014
lhumerus -38.8248 10.328 79.3701
lradius 32.8804
lwrist -5.61296
lhand -20.9427 27.3635
lfingers 7.12502
lthumb 5.4297 57.274
rfemur -28.9112 -1.84832 17.4462
rtibia 28.3709
rfoot -10.7556 11.8669
rtoes -24.5686
lfemur -0.593246 -17.2108 -26.6548
ltibia 26.106
lfoot -9.90138 -16.1887
ltoes 7.93207
2243
root 3.84676 17.9116 10.435 2.85524 130.409 -359.54
lowerback 12.2741 5.28759 -3.04846
upperback 2.55164 6.73719 -3.39982
thorax -4.08978 3.46637 -2.90695
lowerneck -15.1668 5.61757 -5.40093
upperneck 46.013 18.3421 1.11087
head 20.1133 7.85591 5.7261
rclavicle 2.14687e-014 -7.95139e-016
rhumerus -29.805 -10.6446 -79.2512
rradius 41.573
rwrist 1.60925
rhand -17.2387 8.15871
rfingers 7.12502
rthumb 9.00504 -21.6291
lclavicle 2.14687e-014 -7.95139e-016
lhumerus -38.8422 10.1652 79.307
lradius 32.7209
lwrist -5.39976
lhand -21.225 27.1176
lfingers 7.12502
lthumb 5.15708 57.0349
rfemur -28.6536 -1.65905 17.3459
rtibia 29.3924
rfoot -11.3501 9.92973
rtoes -23.6865
lfemur -0.887147 -16.7941 -26.8313
ltibia 26.3206
lfoot -9.73716 -15.8512
ltoes 7.84841
2244
root 3.751 17.9235 10.49 2.6311 129.736 -359.632
lowerback 12.2623 5.32591 -2.8946
upperback 2.5618 6.80822 -3.50672
thorax -4.04025 3.50198 -3.11089
lowerneck -15.1528 5.54054 -5.50308
upperneck 46.1256 18.25 1.16208
head 20.1711 7.80157 5.76078
rclavicle 3.81667e-014 -5.32743e-014
rhumerus -29.4748 -10.5414 -79.6609
rradius 41.4649
rwrist 1.71385
rhand -17.1112 8.41728
rfingers 7.12502
rthumb 9.12803 -21.3652
lclavicle 3.81667e-014 -5.32743e-014
lhumerus -38.7722 10.0675 79.1199
lradius 32.5795
lwrist -5.36696
lhand -21.6021 27.0777
lfingers 7.12502
lthumb 4.79299 57.0035
rfemur -28.378 -1.784 17.2981
rtibia 30.4785
rfoot -11.8146 8.14146
rtoes -23.2127
lfemur -1.27016 -16.5094 -26.9539
ltibia 26.5786
lfoot -9.45785 -15.6452
ltoes 8.1158
2245
root 3.6537 17.9339 10.5447 2.30526 129.12 -359.816
lowerback 12.2871 5.31494 -2.74442
upperback 2.61594 6.81757 -3.66667
thorax -3.95943 3.51017 -3.35932
lowerneck -15.2183 5.50482 -5.72915
upperneck 46.1621 18.0727 1.43187
head 20.1365 7.71882 5.88817
rclavicle -8.48811e-014 -7.95139e-015
rhumerus -29.2925 -10.2211 -80.2067
rradius 41.6762
rwrist 1.70625
rhand -17.0691 8.44815
rfingers 7.12502
rthumb 9.16863 -21.3325
lclavicle -8.48811e-014 -7.95139e-015
lhumerus -38.6495 10.1919 78.7963
lradius 32.5202
lwrist -5.65373
lhand -21.3683 27.2471
lfingers 7.12502
lthumb 5.01877 57.1677
rfemur -28.0577 -1.78756 17.148
rtibia 31.637
rfoot -12.2839 6.16273
rtoes -23.8341
lfemur -1.66409 -16.2383 -27.1096
ltibia 26.869
lfoot -9.10361 -15.5819
ltoes 8.52766
2246
root 3.5609 17.9482 10.5981 2.01005 128.455 -359.947
lowerback 12.2811 5.30044 -2.61502
upperback 2.68144 6.82139 -3.76817
thorax -3.85963 3.51514 -3.53053
lowerneck -15.3544 5.50104 -5.98597
upperneck 46.2015 17.9769 1.67593
head 20.123 7.65218 6.03052
rclavicle 2.28602e-014 -4.85035e-014
rhumerus -29.0572 -9.88263 -80.7458
rradius 41.8307
rwrist 1.98472
rhand -16.9629 8.43467
rfingers 7.12502
rthumb 9.27117 -21.3415
lclavicle 2.28602e-014 -4.85035e-014
lhumerus -38.5483 10.5235 78.4811
lradius 32.4558
lwrist -5.90053
lhand -21.1705 27.225
lfingers 7.12502
lthumb 5.2097 57.141
rfemur -27.7214 -1.59889 17.0089
rtibia 32.873
rfoot -12.6214 4.22773
rtoes -24.5021
lfemur -2.03745 -15.8192 -27.1795
ltibia 27.1474
lfoot -8.62152 -15.6974
ltoes 9.45427
